# xmcd
#
# Track frame offsets: 
#        150
#        15761
#        36802
#        55312
#        83054
#        100316
#        123949
#        137822
#        166751
#        192112
#        209213
#        237171
#
# Disc length: 3399 seconds
#
# Revision: 0
# Processed by: cddbd v1.5.2PL0 Copyright (c) Steve Scherf et al.
# Submitted via: ExactAudioCopy v0.99pb3
#
DISCID=980d450c
DTITLE=Bobby Warren - Make Me Yours
DYEAR=2003
DGENRE=Blues
TTITLE0=Let Me Go
TTITLE1=Make Me Yours
TTITLE2=Everyday I Have The Blues
TTITLE3=I Had Adream
TTITLE4=Three O'clock In The Morning
TTITLE5=Cross Roads
TTITLE6=Baby Please Come Home
TTITLE7=Early In The Morning
TTITLE8=I've Got The Blues
TTITLE9=Down Home Blues
TTITLE10=Sweet Sixteen
TTITLE11=It's Christmas Baby
EXTD=
EXTT0=
EXTT1=
EXTT2=
EXTT3=
EXTT4=
EXTT5=
EXTT6=
EXTT7=
EXTT8=
EXTT9=
EXTT10=
EXTT11=
PLAYORDER=
